<svg width="52" height="38" viewBox="0 0 52 38" fill="none" xmlns="http://www.w3.org/2000/svg">
<path id="Vector" d="M51.4542 18.6865C51.1861 18.2062 50.8265 17.7862 50.3967 17.4516C49.9669 17.1169 49.4759 16.8745 48.9528 16.7386C47.3827 16.3378 45.7643 16.1727 44.148 16.2484C44.4709 13.6111 44.235 10.9334 43.4564 8.39814C43.1479 7.41774 42.4955 6.58974 41.6256 6.07465C40.7556 5.55957 39.7302 5.3941 38.7481 5.61032C37.0611 5.98928 35.4387 6.62466 33.9349 7.49541C32.5926 4.89372 30.7159 2.62166 28.4343 0.835997C27.7325 0.29342 26.8775 -3.75803e-05 25.9986 3.60965e-09C25.1197 3.75875e-05 24.2648 0.293569 23.563 0.836205C21.2814 2.62175 19.4047 4.89375 18.0625 7.49541C16.5588 6.62476 14.9367 5.98938 13.2499 5.61032C12.2676 5.39383 11.242 5.55917 10.3719 6.07428C9.5018 6.58939 8.84925 7.41755 8.5408 8.39813C7.7623 10.9334 7.52644 13.6111 7.84932 16.2484C6.23301 16.1728 4.61454 16.3379 3.04444 16.7386C2.52214 16.8763 2.03188 17.1195 1.60238 17.454C1.17288 17.7885 0.812761 18.2075 0.543119 18.6864C0.273477 19.1654 0.0997291 19.6948 0.0320504 20.2435C-0.0356282 20.7922 0.00412245 21.3492 0.148975 21.882C0.901058 24.6401 3.194 29.8776 10.0999 33.9668C16.8995 37.9927 22.8025 37.9994 25.9824 37.9994C25.9871 37.9994 25.9916 38 25.9963 38L25.9987 37.9999L26.0011 38C26.0057 38 26.0103 37.9994 26.0149 37.9994C29.1947 37.9994 35.0978 37.9927 41.8974 33.9668C48.8033 29.8776 51.0963 24.6401 51.8484 21.8822C51.9952 21.3496 52.0359 20.7922 51.9682 20.2432C51.9005 19.6942 51.7257 19.1647 51.4542 18.6865ZM39.0289 10.6882C39.4533 12.4178 39.7045 15.0802 38.753 18.3978C38.7329 18.4596 38.7146 18.5221 38.6993 18.5856C38.2383 20.1008 37.6109 21.5573 36.8291 22.9272C36.5764 23.3763 36.3096 23.8094 36.0337 24.23C36.3904 22.455 36.5671 20.6469 36.561 18.8346C36.572 16.5973 36.2962 14.3683 35.7404 12.2048C36.7628 11.5456 37.8696 11.0351 39.0289 10.6882ZM25.9987 5.23031C28.0251 6.95011 31.6861 11.1261 31.6861 18.8346C31.6861 26.6317 27.968 30.7933 25.9987 32.4504C24.0294 30.7933 20.3113 26.6317 20.3113 18.8346C20.3113 11.1255 23.9724 6.94971 25.9987 5.23031ZM12.9684 10.6882C14.1277 11.0351 15.2345 11.5456 16.2569 12.2048C15.7012 14.3683 15.4253 16.5973 15.4364 18.8346C15.4302 20.6469 15.6069 22.455 15.9636 24.23C15.6877 23.8094 15.4209 23.3763 15.1682 22.9272C14.3864 21.5573 13.759 20.1006 13.2981 18.5853C13.2827 18.5221 13.2646 18.4599 13.2444 18.3984C12.2929 15.0804 12.544 12.4178 12.9684 10.6882ZM5.1178 21.3951C6.42812 21.1812 7.76268 21.1744 9.07498 21.3752C9.58722 22.7771 10.2132 24.1324 10.9463 25.4269C12.0714 27.4087 13.4213 29.2468 14.9679 30.9029C14.136 30.5262 13.3247 30.1036 12.5374 29.637C7.81907 26.8432 5.89775 23.5375 5.1178 21.3951ZM39.46 29.637C38.676 30.1016 37.8683 30.5225 37.0402 30.898C38.5832 29.2432 39.9295 27.4067 41.051 25.4269C41.7842 24.1323 42.4102 22.7769 42.9225 21.375C44.2347 21.1741 45.5693 21.1809 46.8795 21.3951C46.0996 23.5375 44.1783 26.8432 39.46 29.637Z" fill="white"/>
</svg>
