<svg width="167" height="164" viewBox="0 0 167 164" fill="none" xmlns="http://www.w3.org/2000/svg">
<ellipse cx="83.5" cy="82" rx="83.5" ry="82" fill="#653398"/>
<ellipse cx="67.7437" cy="28.9054" rx="16.8491" ry="16.5465" fill="#D9D9D9"/>
<ellipse cx="87.3362" cy="19.6702" rx="16.8491" ry="16.5465" fill="#D9D9D9"/>
<ellipse cx="100.659" cy="30.4449" rx="16.8491" ry="16.5465" fill="#D9D9D9"/>
<ellipse cx="85.7683" cy="30.4449" rx="16.8491" ry="16.5465" fill="#D9D9D9"/>
<rect x="41.3523" y="53.1047" width="84.2952" height="103.086" rx="7" fill="#F34F3A"/>
<rect x="50.895" y="64.0381" width="66.8" height="12.4952" fill="#D9D9D9"/>
<ellipse cx="111.334" cy="70.2854" rx="3.18095" ry="3.12381" fill="#5BCA54"/>
<rect x="50.895" y="81.219" width="66.8" height="12.4952" fill="#D9D9D9"/>
<ellipse cx="111.334" cy="87.4668" rx="3.18095" ry="3.12381" fill="#60B4D4"/>
<rect x="50.895" y="98.3999" width="66.8" height="12.4952" fill="#D9D9D9"/>
<ellipse cx="111.334" cy="104.647" rx="3.18095" ry="3.12381" fill="#5BCA54"/>
<rect x="50.895" y="115.581" width="66.8" height="12.4952" fill="#D9D9D9"/>
<ellipse cx="111.334" cy="121.828" rx="3.18095" ry="3.12381" fill="#60B4D4"/>
<rect x="50.895" y="132.762" width="66.8" height="12.4952" fill="#D9D9D9"/>
<ellipse cx="111.334" cy="139.01" rx="3.18095" ry="3.12381" fill="#5BCA54"/>
<rect x="54.0757" y="70.2856" width="49.3048" height="1.5619" fill="#1E1E1E"/>
<rect x="54.0757" y="87.4668" width="49.3048" height="1.5619" fill="#1E1E1E"/>
<rect x="54.0757" y="104.648" width="49.3048" height="1.5619" fill="#1E1E1E"/>
<rect x="54.0757" y="121.829" width="49.3048" height="1.5619" fill="#1E1E1E"/>
<rect x="54.0757" y="139.009" width="49.3048" height="1.5619" fill="#1E1E1E"/>
</svg>
